<svg height="512pt" viewBox="-55 0 512 512.00009" width="512pt" xmlns="http://www.w3.org/2000/svg"><path d="m358.316406 188.027344 29.679688.617187c11.886718 1.296875 18.355468 14.542969 12.074218 24.710938l-21.949218 25.53125-32.078125-11.382813zm0 0" fill="#ffb44d"/><path d="m332.1875 149.894531-111.753906 8.582031-97.4375 56.714844c.765625 5.363282 1.167968 10.847656 1.167968 16.421875 0 63.792969-51.714843 115.503907-115.507812 115.503907-.035156 0-.074219 0-.109375 0-5.617187-.003907-9.707031 5.253906-8.25 10.675781 23.980469 89.136719 99.316406 154.207031 188.550781 154.207031 108.542969 0 196.53125-96.269531 196.53125-215.019531 0-56.898438-20.207031-108.625-53.191406-147.085938zm0 0" fill="#1fd7c3"/><path d="m318.558594 212.921875c-3.1875 0-6.171875-1.988281-7.289063-5.167969l-4.679687-13.332031c-1.414063-4.023437.703125-8.433594 4.730468-9.847656 4.027344-1.414063 8.433594.703125 9.851563 4.726562l4.679687 13.332031c1.414063 4.023438-.703124 8.433594-4.730468 9.847657-.847656.300781-1.710938.441406-2.5625.441406zm0 0" fill="#444f5c"/><path d="m299.925781 244.832031c-3.1875 0-6.171875-1.992187-7.289062-5.167969-1.414063-4.027343.703125-8.4375 4.730469-9.851562l18.15625-6.375c4.027343-1.414062 8.433593.703125 9.851562 4.726562 1.414062 4.027344-.707031 8.4375-4.730469 9.851563l-18.15625 6.375c-.847656.300781-1.710937.441406-2.5625.441406zm0 0" fill="#ff8997"/><path d="m273.957031.972656-187.128906 58.40625c-9.980469 3.117188-15.546875 12.601563-11.914063 20.316406l18.261719 40.015626 112.351563-8.980469 97.515625-56.523438-7.742188-43.296875c-1.402343-8.410156-11.363281-13.050781-21.34375-9.9375zm0 0" fill="#4a5660"/><path d="m345.59375 167.296875c-4.191406-6.058594-8.660156-11.871094-13.40625-17.402344l-111.753906 8.582031-97.433594 56.714844c.761719 5.363282 1.164062 10.84375 1.164062 16.421875 0 1.617188-.042968 3.226563-.109374 4.828125zm0 0" fill="#00bbc9"/><path d="m339.664062 94.960938-27.804687 8.675781.011719-.007813-106.339844 7.101563-91.503906 54.652343h.015625l-27.800781 8.675782c-7.84375 2.449218-12.214844 10.789062-9.765626 18.628906l6.097657 19.535156c2.445312 7.84375 10.785156 12.214844 18.628906 9.769532l253.425781-79.101563c7.839844-2.449219 12.214844-10.789063 9.765625-18.628906l-6.097656-19.539063c-2.449219-7.839844-10.789063-12.210937-18.632813-9.761718zm0 0" fill="#4a5660"/><path d="m128.988281 213.316406c-7.839843 2.445313-16.183593-1.925781-18.628906-9.765625l-6.097656-19.539062c-2.441407-7.820313 1.902343-16.132813 9.703125-18.605469l-27.722656 8.652344c-7.84375 2.449218-12.214844 10.789062-9.769532 18.628906l6.097656 19.539062c2.449219 7.839844 10.789063 12.214844 18.632813 9.765626zm0 0" fill="#3d4851"/><path d="m255.898438 349.09375c-14.054688-35.796875-54.34375-53.699219-90.390626-40.007812-38.453124 14.601562-45.386718 70.101562-87.09375 95.914062-4.636718 2.867188-5.273437 9.378906-1.191406 12.988281 18.164063 16.0625 66.015625 48.574219 135.367188 23.589844 37.644531-13.558594 57.933594-55.242187 43.308594-92.484375zm0 0" fill="#00bbc9"/><path d="m130.390625 116.734375-28.347656-62.101563s-15.179688 4.738282-15.214844 4.746094c-8.128906 2.539063-16.070313 11.484375-11.914063 20.316406l18.265626 40.011719zm0 0" fill="#3d4851"/><path d="m303.042969 54.203125 8.828125 49.429687-197.84375 61.75-20.851563-45.671874zm0 0" fill="#ffe76c"/><path d="m126.933594 109.171875-33.753906 10.535156 20.847656 45.675781 33.757812-10.535156zm0 0" fill="#ffb44d"/></svg>